# Blender v2.78 (sub 0) OBJ File: 'arena.blend'
# www.blender.org
mtllib arena.mtl
o Cube
v 10.000000 -0.500000 -10.000000
v 10.000000 -0.500000 10.000000
v -10.000001 -0.500000 9.999998
v -9.999996 -0.500000 -10.000004
v 10.000004 0.500000 -9.999996
v 9.999994 0.500000 10.000006
v -10.000004 0.500000 9.999996
v -9.999999 0.500000 -10.000000
v -10.000000 -1.000000 -9.000000
v -10.000000 1.000000 -9.000000
v -10.000000 -1.000000 -11.000000
v -10.000000 1.000000 -11.000000
v 10.000000 -1.000000 -9.000000
v 10.000000 1.000000 -9.000000
v 10.000000 -1.000000 -11.000000
v 10.000000 1.000000 -11.000000
v -10.000000 -1.000000 11.000000
v -10.000000 1.000000 11.000000
v -10.000000 -1.000000 9.000000
v -10.000000 1.000000 9.000000
v 10.000000 -1.000000 11.000000
v 10.000000 1.000000 11.000000
v 10.000000 -1.000000 9.000000
v 10.000000 1.000000 9.000000
v 11.000000 -1.000000 10.000000
v 11.000000 1.000000 10.000000
v 9.000000 -1.000000 10.000000
v 9.000000 1.000000 10.000000
v 11.000000 -1.000000 -10.000000
v 11.000000 1.000000 -10.000000
v 9.000000 -1.000000 -10.000000
v 9.000000 1.000000 -10.000000
v -9.000000 -1.000000 10.000000
v -9.000000 1.000000 10.000000
v -11.000000 -1.000000 10.000000
v -11.000000 1.000000 10.000000
v -9.000000 -1.000000 -10.000000
v -9.000000 1.000000 -10.000000
v -11.000000 -1.000000 -10.000000
v -11.000000 1.000000 -10.000000
vt 0.5000 0.5000
vt -4.2684 5.2684
vt -4.2684 0.5000
vt 0.5000 -4.2684
vt -4.2684 0.5000
vt -4.2684 -4.2684
vt 3.3610 5.2684
vt 3.5995 0.5000
vt 3.5995 5.2684
vt 3.8379 0.5000
vt 3.5995 5.2684
vt 4.0763 5.2684
vt 3.8379 0.5000
vt 4.0763 0.5000
vt 4.3147 0.5000
vt 4.0763 5.2684
vt 4.0763 0.5000
vt 4.3147 2.4074
vt 4.7915 1.9305
vt 4.7915 2.4074
vt 0.5000 5.2684
vt 0.9768 0.5000
vt 0.9768 5.2684
vt 4.3147 2.8842
vt 4.7915 2.4074
vt 4.7915 2.8842
vt 3.8379 0.5000
vt 4.3147 -4.2684
vt 4.3147 0.5000
vt 3.3610 -4.2684
vt 3.8379 0.5000
vt 3.3610 0.5000
vt 2.8842 0.5000
vt 2.4074 -4.2684
vt 2.8842 -4.2684
vt 4.3147 3.8379
vt 4.7915 3.3610
vt 4.7915 3.8379
vt 0.9768 5.2684
vt 1.4537 0.5000
vt 1.4537 5.2684
vt 4.3147 1.4537
vt 4.7915 0.9768
vt 4.7915 1.4537
vt 4.3147 0.5000
vt 4.7915 -4.2684
vt 4.7915 0.5000
vt 2.8842 -4.2684
vt 3.3610 0.5000
vt 2.8842 0.5000
vt 2.4074 0.5000
vt 1.9305 -4.2684
vt 2.4074 -4.2684
vt 4.3147 3.8379
vt 4.7915 4.3147
vt 4.3147 4.3147
vt 1.4537 0.5000
vt 1.9305 -4.2684
vt 1.9305 0.5000
vt 4.3147 1.4537
vt 4.7915 1.9305
vt 4.3147 1.9305
vt 0.5000 0.5000
vt 0.9768 -4.2684
vt 0.9768 0.5000
vt 3.3610 5.2684
vt 2.8842 0.5000
vt 3.3610 0.5000
vt 2.8842 5.2684
vt 2.4074 0.5000
vt 2.8842 0.5000
vt 4.3147 2.8842
vt 4.7915 3.3610
vt 4.3147 3.3610
vt 4.7915 0.5000
vt 5.2684 -4.2684
vt 5.2684 0.5000
vt 4.3147 0.5000
vt 4.7915 0.9768
vt 4.3147 0.9768
vt 0.9768 0.5000
vt 1.4537 -4.2684
vt 1.4537 0.5000
vt 2.4074 5.2684
vt 1.9305 0.5000
vt 2.4074 0.5000
vt 1.9305 5.2684
vt 1.4537 0.5000
vt 1.9305 0.5000
vt 0.5000 5.2684
vt 0.5000 0.5000
vt 3.3610 0.5000
vt 3.8379 5.2684
vt 4.3147 5.2684
vt 4.3147 1.9305
vt 0.5000 0.5000
vt 4.3147 2.4074
vt 3.8379 -4.2684
vt 3.8379 -4.2684
vt 2.4074 0.5000
vt 4.3147 3.3610
vt 0.9768 0.5000
vt 4.3147 0.9768
vt 4.3147 -4.2684
vt 3.3610 -4.2684
vt 1.9305 0.5000
vt 4.7915 3.8379
vt 1.4537 -4.2684
vt 4.7915 1.4537
vt 0.5000 -4.2684
vt 2.8842 5.2684
vt 2.4074 5.2684
vt 4.7915 2.8842
vt 4.7915 -4.2684
vt 4.7915 0.5000
vt 0.9768 -4.2684
vt 1.9305 5.2684
vt 1.4537 5.2684
vn 0.0000 -1.0000 0.0000
vn 0.0000 1.0000 0.0000
vn 1.0000 -0.0000 0.0000
vn -0.0000 -0.0000 1.0000
vn -1.0000 -0.0000 -0.0000
vn 0.0000 0.0000 -1.0000
usemtl Material
s off
f 2/1/1 4/2/1 1/3/1
f 5/4/2 7/5/2 6/6/2
f 5/7/3 2/8/3 1/9/3
f 6/10/4 3/11/4 2/8/4
f 3/12/5 8/13/5 4/14/5
f 1/15/6 8/16/6 5/17/6
f 10/18/5 11/19/5 9/20/5
f 12/21/6 15/22/6 11/23/6
f 16/24/3 13/25/3 15/26/3
f 14/27/4 9/28/4 13/29/4
f 15/30/1 9/31/1 11/32/1
f 12/33/2 14/34/2 16/35/2
f 18/36/5 19/37/5 17/38/5
f 20/39/6 23/40/6 19/41/6
f 24/42/3 21/43/3 23/44/3
f 22/45/4 17/46/4 21/47/4
f 23/48/1 17/49/1 19/50/1
f 20/51/2 22/52/2 24/53/2
f 26/54/4 27/55/4 25/56/4
f 28/57/5 31/58/5 27/59/5
f 32/60/6 29/61/6 31/62/6
f 30/63/3 25/64/3 29/65/3
f 31/66/1 25/67/1 27/68/1
f 28/69/2 30/70/2 32/71/2
f 34/72/4 35/73/4 33/74/4
f 36/75/5 39/76/5 35/77/5
f 40/78/6 37/79/6 39/80/6
f 38/81/3 33/82/3 37/83/3
f 39/84/1 33/85/1 35/86/1
f 36/87/2 38/88/2 40/89/2
f 2/1/1 3/90/1 4/2/1
f 5/4/2 8/91/2 7/5/2
f 5/7/3 6/92/3 2/8/3
f 6/10/4 7/93/4 3/11/4
f 3/12/5 7/93/5 8/13/5
f 1/15/6 4/94/6 8/16/6
f 10/18/5 12/95/5 11/19/5
f 12/21/6 16/96/6 15/22/6
f 16/24/3 14/97/3 13/25/3
f 14/27/4 10/98/4 9/28/4
f 15/30/1 13/99/1 9/31/1
f 12/33/2 10/100/2 14/34/2
f 18/36/5 20/101/5 19/37/5
f 20/39/6 24/102/6 23/40/6
f 24/42/3 22/103/3 21/43/3
f 22/45/4 18/104/4 17/46/4
f 23/48/1 21/105/1 17/49/1
f 20/51/2 18/106/2 22/52/2
f 26/54/4 28/107/4 27/55/4
f 28/57/5 32/108/5 31/58/5
f 32/60/6 30/109/6 29/61/6
f 30/63/3 26/110/3 25/64/3
f 31/66/1 29/111/1 25/67/1
f 28/69/2 26/112/2 30/70/2
f 34/72/4 36/113/4 35/73/4
f 36/75/5 40/114/5 39/76/5
f 40/78/6 38/115/6 37/79/6
f 38/81/3 34/116/3 33/82/3
f 39/84/1 37/117/1 33/85/1
f 36/87/2 34/118/2 38/88/2
