# Blender v2.78 (sub 0) OBJ File: 'tank.blend'
# www.blender.org
mtllib tank.mtl
o Cylinder
v -0.382683 -0.034205 -0.923880
v -0.382683 0.534205 -0.923880
v 0.382683 -0.034205 -0.923880
v 0.382683 0.534205 -0.923880
v 0.923879 -0.034205 -0.382683
v 0.923879 0.534205 -0.382683
v 0.923880 -0.034205 0.382683
v 0.923880 0.534205 0.382683
v 0.382683 -0.034205 0.923880
v 0.382683 0.534205 0.923880
v -0.382684 -0.034205 0.923879
v -0.382684 0.534205 0.923879
v -0.923880 -0.034205 0.382683
v -0.923880 0.534205 0.382683
v -0.923880 -0.034205 -0.382683
v -0.923880 0.534205 -0.382683
v 0.154578 1.255538 -0.373184
v 0.373184 1.255538 -0.154578
v 0.373184 1.255538 0.154578
v 0.154578 1.255538 0.373184
v -0.154578 1.255538 0.373183
v -0.373184 1.255538 0.154578
v -0.373184 1.255538 -0.154578
v -0.154578 1.255538 -0.373184
v 0.271271 0.534205 -0.654905
v -0.271271 0.534205 -0.654905
v 0.654905 0.534205 -0.271271
v 0.654905 0.534205 0.271271
v 0.271271 0.534205 0.654905
v -0.271271 0.534205 0.654905
v -0.654905 0.534205 0.271271
v -0.654905 0.534205 -0.271271
v 0.271271 0.937305 -0.654905
v -0.271271 0.937305 -0.654905
v 0.654905 0.937305 -0.271271
v 0.654905 0.937305 0.271271
v 0.271271 0.937305 0.654905
v -0.271271 0.937305 0.654905
v -0.654905 0.937305 0.271271
v -0.654905 0.937305 -0.271271
v 1.569560 0.616587 -0.286012
v 1.569560 -0.013060 -0.649004
v 1.569560 0.616587 0.238232
v 1.569560 -0.013060 0.601224
v 0.939912 0.616587 -0.286012
v 0.939912 -0.013060 -0.649004
v 0.939912 0.616587 0.238232
v 0.939912 -0.013060 0.601224
v 0.271271 0.937305 -0.654905
v -0.271271 0.937305 -0.654905
v 0.654905 0.937305 -0.271271
v 0.654905 0.937305 0.271271
v 0.271271 0.937305 0.654905
v -0.271271 0.937305 0.654905
v -0.654905 0.937305 0.271271
v -0.654905 0.937305 -0.271271
v 0.154578 0.937305 -0.373184
v -0.154578 0.937305 -0.373184
v 0.373184 0.937305 -0.154578
v 0.373184 0.937305 0.154578
v 0.154578 0.937305 0.373184
v -0.154578 0.937305 0.373183
v -0.373184 0.937305 0.154578
v -0.373184 0.937305 -0.154578
v -0.926485 0.616587 -0.286012
v -0.926485 -0.013060 -0.649004
v -0.926485 0.616587 0.238232
v -0.926485 -0.013060 0.601224
v -1.556133 0.616587 -0.286012
v -1.556133 -0.013060 -0.649004
v -1.556133 0.616587 0.238232
v -1.556133 -0.013060 0.601224
v -0.009084 0.890173 1.850645
v 0.108824 0.841347 1.851790
v -0.009084 0.848309 0.065019
v -0.009084 0.890173 1.850645
v 0.108824 0.799483 0.066164
v 0.108824 0.841347 1.851790
v 0.157664 0.681607 0.068927
v 0.157664 0.723471 1.854553
v 0.108824 0.563731 0.071691
v 0.108824 0.605595 1.857317
v -0.009084 0.514905 0.072836
v -0.009084 0.556769 1.858462
v -0.126993 0.563731 0.071691
v -0.126993 0.605595 1.857317
v -0.175832 0.681607 0.068927
v -0.175832 0.723471 1.854553
v -0.126993 0.799483 0.066164
v -0.126993 0.841347 1.851790
v 0.157664 0.723471 1.854553
v 0.108824 0.605595 1.857317
v -0.009084 0.556769 1.858462
v -0.126993 0.605595 1.857317
v -0.175832 0.723471 1.854553
v -0.126993 0.841347 1.851790
v -0.009084 0.968719 1.850645
v -0.182548 0.896888 1.851790
v -0.254399 0.723471 1.854553
v -0.182548 0.550055 1.857317
v -0.009084 0.478223 1.858462
v 0.164380 0.550055 1.857317
v 0.236231 0.723471 1.854553
v 0.164380 0.896888 1.851790
v -0.009084 0.974044 2.184748
v -0.182548 0.902212 2.185893
v -0.254399 0.728796 2.188656
v -0.182548 0.555379 2.191420
v -0.009084 0.483548 2.192565
v 0.164380 0.555379 2.191420
v 0.236231 0.728796 2.188656
v 0.164380 0.902212 2.185893
vt 0.4085 0.8704
vt 0.4712 0.7211
vt 0.4712 0.8704
vt 0.4714 0.3605
vt 0.4085 0.4661
vt 0.4085 0.3605
vt 0.4714 0.4661
vt 0.4085 0.6155
vt 0.4714 0.6155
vt 0.4085 0.7211
vt 0.4714 0.1493
vt 0.5332 0.0000
vt 0.5332 0.1493
vt 0.4085 0.3605
vt 0.4714 0.2549
vt 0.4714 0.3605
vt 0.0938 0.6161
vt 0.1280 0.6161
vt 0.1521 0.7191
vt 0.4085 0.2549
vt 0.4714 0.1056
vt 0.4085 0.1056
vt 0.4714 0.0000
vt 0.2641 0.3605
vt 0.2043 0.1056
vt 0.4085 0.2549
vt 0.0000 0.2549
vt 0.0297 0.1273
vt 0.0297 0.2332
vt 0.2043 0.1056
vt 0.1321 0.0525
vt 0.1444 0.0000
vt 0.0598 0.0000
vt 0.0000 0.1056
vt 0.2043 0.2549
vt 0.1745 0.1273
vt 0.0598 0.3605
vt 0.1321 0.3080
vt 0.1444 0.3605
vt 0.0721 0.3080
vt 0.0721 0.0525
vt 0.1745 0.2332
vt 0.1894 0.6161
vt 0.1448 0.5412
vt 0.1894 0.5412
vt 0.0000 0.0000
vt 0.0000 0.0000
vt 0.0000 0.0000
vt 0.4078 0.9659
vt 0.3640 0.8600
vt 0.4078 0.8600
vt 0.4085 0.6793
vt 0.3640 0.6045
vt 0.4085 0.6045
vt 0.0445 0.9659
vt 0.0000 0.8600
vt 0.0445 0.8600
vt 0.1448 0.4354
vt 0.1894 0.4354
vt 0.4085 0.8600
vt 0.3640 0.7852
vt 0.4085 0.7852
vt 0.1448 0.3605
vt 0.1894 0.3605
vt 0.3640 0.6793
vt 0.0000 0.0000
vt 0.0000 0.0000
vt 0.0000 0.0000
vt 0.0000 0.0000
vt 0.0000 0.0000
vt 0.0000 0.0000
vt 0.0000 0.0000
vt 0.0000 0.0000
vt 0.0000 0.0000
vt 0.0000 0.0000
vt 0.0000 0.0000
vt 0.0000 0.0000
vt 0.0000 0.0000
vt 0.1997 0.5336
vt 0.2693 0.3605
vt 0.2693 0.6045
vt 0.0424 0.6161
vt 0.0895 0.5611
vt 0.1024 0.6161
vt 0.1448 0.4354
vt 0.0895 0.4155
vt 0.1024 0.3605
vt 0.0424 0.3605
vt 0.0311 0.4581
vt 0.0000 0.4354
vt 0.0000 0.5412
vt 0.0553 0.5611
vt 0.1137 0.5185
vt 0.1448 0.5412
vt 0.1137 0.4581
vt 0.0553 0.4155
vt 0.0311 0.5185
vt 0.5684 0.0427
vt 0.5332 0.0000
vt 0.5684 0.0000
vt 0.5684 0.1456
vt 0.5332 0.1030
vt 0.5684 0.1030
vt 0.5644 0.9573
vt 0.5292 0.8970
vt 0.5644 0.8970
vt 0.5410 0.5591
vt 0.5751 0.4980
vt 0.5751 0.5591
vt 0.5332 0.0427
vt 0.5408 0.8507
vt 0.5750 0.7887
vt 0.5750 0.8507
vt 0.5292 0.8544
vt 0.5644 0.8544
vt 0.5644 1.0000
vt 0.5292 0.9573
vt 0.3389 0.9756
vt 0.2693 0.8484
vt 0.3389 0.8484
vt 0.2693 0.5336
vt 0.3389 0.3605
vt 0.3389 0.6045
vt 0.4712 0.7211
vt 0.5408 0.8544
vt 0.4712 0.8544
vt 0.0000 0.8600
vt 0.0696 0.6161
vt 0.0696 0.8600
vt 0.5292 0.9772
vt 0.4712 0.8544
vt 0.5292 0.8544
vt 0.1997 0.7776
vt 0.2693 0.6045
vt 0.2693 0.8484
vt 0.4714 0.4980
vt 0.5410 0.6252
vt 0.4714 0.6252
vt 0.3389 0.5336
vt 0.4085 0.3605
vt 0.4085 0.6045
vt 0.0696 0.7617
vt 0.1392 0.8950
vt 0.0696 0.8950
vt 0.2693 0.8484
vt 0.3389 0.6045
vt 0.3389 0.8484
vt 0.2577 0.9713
vt 0.1997 0.8484
vt 0.2577 0.8484
vt 0.5034 0.6994
vt 0.5213 0.6876
vt 0.5067 0.7136
vt 0.0000 0.0000
vt 0.0000 0.0000
vt 0.0000 0.0000
vt 0.4844 0.4978
vt 0.4714 0.1495
vt 0.4844 0.1493
vt 0.4893 0.6394
vt 0.4714 0.6512
vt 0.4860 0.6253
vt 0.0000 0.0000
vt 0.0000 0.0000
vt 0.0000 0.0000
vt 0.1782 0.6161
vt 0.1652 0.9646
vt 0.1652 0.6161
vt 0.5034 0.6393
vt 0.5067 0.6252
vt 0.0000 0.0000
vt 0.0000 0.0000
vt 0.1521 0.6161
vt 0.4893 0.6995
vt 0.4860 0.7137
vt 0.0000 0.0000
vt 0.0000 0.0000
vt 0.4974 0.1495
vt 0.5105 0.4978
vt 0.4974 0.4979
vt 0.4794 0.6819
vt 0.4794 0.6571
vt 0.0000 0.0000
vt 0.0000 0.0000
vt 0.5105 0.1493
vt 0.5235 0.4979
vt 0.1065 0.8950
vt 0.0697 0.9289
vt 0.0696 0.8950
vt 0.0000 0.0000
vt 0.0000 0.0000
vt 0.5235 0.1493
vt 0.5365 0.4978
vt 0.5235 0.4978
vt 0.0000 0.0000
vt 0.5213 0.6510
vt 0.5133 0.6569
vt 0.5365 0.1493
vt 0.5496 0.4978
vt 0.4714 0.6878
vt 0.0000 0.0000
vt 0.4974 0.4980
vt 0.4974 0.1495
vt 0.5650 0.5592
vt 0.5650 0.6192
vt 0.5509 0.6192
vt 0.5133 0.6818
vt 0.4581 0.8960
vt 0.4581 0.9326
vt 0.4085 0.8968
vt 0.5408 0.7549
vt 0.5778 0.7887
vt 0.5408 0.7887
vt 0.1067 0.9289
vt 0.1436 0.9627
vt 0.1066 0.9627
vt 0.5213 0.6929
vt 0.5583 0.6590
vt 0.5583 0.6929
vt 0.5408 0.7211
vt 0.5778 0.7549
vt 0.1436 0.8950
vt 0.1436 0.9289
vt 0.5213 0.6252
vt 0.5213 0.6590
vt 0.1065 0.9627
vt 0.1066 0.9289
vt 0.4085 0.7211
vt 0.4714 0.7211
vt 0.4714 0.0000
vt 0.1280 0.7617
vt 0.0696 0.6587
vt 0.0938 0.7617
vt 0.0696 0.7191
vt 0.1521 0.6587
vt 0.4085 0.0000
vt 0.3487 0.0000
vt 0.4085 0.1056
vt 0.3487 0.3605
vt 0.2043 0.2549
vt 0.2641 0.0000
vt 0.1448 0.6161
vt 0.3640 0.9659
vt 0.0000 0.9659
vt 0.1997 0.4314
vt 0.5332 0.1456
vt 0.5410 0.4980
vt 0.5408 0.7887
vt 0.5292 1.0000
vt 0.2693 0.9756
vt 0.2693 0.4314
vt 0.5408 0.7211
vt 0.0000 0.6161
vt 0.4712 0.9772
vt 0.1997 0.6753
vt 0.5410 0.4980
vt 0.3389 0.4314
vt 0.1392 0.7617
vt 0.2693 0.6045
vt 0.1997 0.9713
vt 0.4714 0.4980
vt 0.1782 0.9646
vt 0.1521 0.9646
vt 0.5235 0.1495
vt 0.5496 0.1493
vt 0.5410 0.6015
vt 0.5410 0.5766
vt 0.5509 0.5591
vt 0.5749 0.5768
vt 0.5749 0.6017
vt 0.4230 0.9590
vt 0.4085 0.9334
vt 0.4436 0.9587
vt 0.4230 0.8707
vt 0.4436 0.8704
vt 0.5778 0.7211
vt 0.1066 0.8950
vt 0.5583 0.6252
vt 0.0696 0.9627
vn 0.0000 0.0000 -1.0000
vn 0.7071 0.0000 -0.7071
vn 1.0000 0.0000 -0.0000
vn 0.7071 0.0000 0.7071
vn -0.0000 0.0000 1.0000
vn -0.7071 0.0000 0.7071
vn 0.0000 1.0000 0.0000
vn -1.0000 0.0000 0.0000
vn -0.7071 0.0000 -0.7071
vn 0.0000 -1.0000 -0.0000
vn 0.0000 0.4994 -0.8663
vn 0.0000 0.4994 0.8663
vn 0.0047 -0.0047 -1.0000
vn 0.3827 0.9236 -0.0217
vn 0.9239 0.3826 -0.0090
vn 0.0000 -0.0159 -0.9999
vn 0.9239 -0.3826 0.0090
vn 0.3827 -0.9236 0.0217
vn -0.0097 0.0000 -1.0000
vn -0.3827 -0.9236 0.0217
vn 0.3826 0.9238 -0.0147
vn -0.9239 -0.3826 0.0090
vn -0.0166 -0.0166 -0.9997
vn -0.9239 0.3826 -0.0090
vn -0.3827 0.9236 -0.0217
vn 0.0000 -0.0234 -0.9997
vn -0.0000 0.0159 0.9999
vn 0.9239 -0.3827 0.0061
vn -0.3826 -0.9238 0.0147
vn -0.9239 0.3827 -0.0061
vn 0.9239 0.3827 -0.0061
vn 0.3826 -0.9238 0.0147
vn -0.9239 -0.3827 0.0061
vn -0.3826 0.9238 -0.0147
vn 0.0097 0.0000 -1.0000
vn 0.0166 -0.0166 -0.9997
vn -0.0047 -0.0047 -1.0000
usemtl None
s off
f 2/1/1 3/2/1 1/3/1
f 4/4/2 5/5/2 3/6/2
f 6/7/3 7/8/3 5/5/3
f 8/9/4 9/10/4 7/8/4
f 10/11/5 11/12/5 9/13/5
f 12/14/6 13/15/6 11/16/6
f 21/17/7 20/18/7 18/19/7
f 14/20/8 15/21/8 13/15/8
f 16/22/9 1/23/9 15/21/9
f 7/24/10 11/25/10 3/26/10
f 16/27/7 31/28/7 32/29/7
f 8/30/7 29/31/7 10/32/7
f 12/33/7 31/28/7 14/34/7
f 6/35/7 28/36/7 8/30/7
f 2/37/7 25/38/7 4/39/7
f 2/37/7 32/29/7 26/40/7
f 12/33/7 29/31/7 30/41/7
f 4/39/7 27/42/7 6/35/7
f 25/43/2 35/44/2 27/45/2
f 39/46/5 54/47/5 55/48/5
f 29/49/5 38/50/5 30/51/5
f 32/52/9 34/53/9 26/54/9
f 26/55/1 33/56/1 25/57/1
f 27/45/3 36/58/3 28/59/3
f 30/60/6 39/61/6 31/62/6
f 28/59/4 37/63/4 29/64/4
f 31/62/8 40/65/8 32/52/8
f 34/66/5 56/67/5 50/68/5
f 33/69/5 50/68/5 49/70/5
f 36/71/5 51/72/5 52/73/5
f 38/74/5 53/75/5 54/47/5
f 40/76/5 55/48/5 56/67/5
f 35/77/5 49/70/5 51/72/5
f 37/78/5 52/73/5 53/75/5
f 47/79/8 46/80/8 48/81/8
f 55/82/7 64/83/7 56/84/7
f 49/85/7 59/86/7 51/87/7
f 52/88/7 61/89/7 53/90/7
f 54/91/7 63/92/7 55/82/7
f 56/84/7 58/93/7 50/94/7
f 50/94/7 57/95/7 49/85/7
f 51/87/7 60/96/7 52/88/7
f 54/91/7 61/89/7 62/97/7
f 60/98/4 20/99/4 61/100/4
f 57/101/2 18/102/2 59/103/2
f 63/104/8 23/105/8 64/106/8
f 61/107/5 21/108/5 62/109/5
f 59/103/3 19/110/3 60/98/3
f 58/111/1 17/112/1 57/113/1
f 64/106/9 24/114/9 58/115/9
f 62/116/6 22/117/6 63/104/6
f 45/118/11 42/119/11 46/120/11
f 41/121/3 44/122/3 42/123/3
f 43/124/12 48/125/12 44/126/12
f 42/127/10 48/128/10 46/129/10
f 45/130/7 43/131/7 41/132/7
f 71/133/8 70/134/8 72/135/8
f 69/136/11 66/137/11 70/138/11
f 65/139/3 68/140/3 66/141/3
f 67/142/12 72/143/12 68/144/12
f 66/145/10 72/146/10 70/147/10
f 69/148/7 67/149/7 65/150/7
f 94/151/13 101/152/13 100/153/13
f 78/154/5 73/155/5 74/156/5
f 76/157/14 77/158/14 75/159/14
f 74/160/13 97/161/13 104/162/13
f 88/163/5 94/164/5 95/165/5
f 77/166/15 80/167/15 79/168/15
f 91/169/16 104/162/16 103/170/16
f 80/171/5 74/156/5 91/172/5
f 80/167/17 81/173/17 79/168/17
f 95/174/16 100/153/16 99/175/16
f 86/176/5 93/177/5 94/164/5
f 82/178/18 83/179/18 81/180/18
f 96/181/19 97/161/19 73/182/19
f 76/183/5 96/184/5 73/155/5
f 84/185/20 85/186/20 83/179/20
f 104/187/21 105/188/21 112/189/21
f 84/190/5 92/191/5 93/177/5
f 86/192/22 87/193/22 85/194/22
f 90/195/5 95/165/5 96/184/5
f 91/169/23 102/196/23 92/197/23
f 88/198/24 89/199/24 87/193/24
f 95/174/23 98/200/23 96/181/23
f 82/201/5 91/172/5 92/191/5
f 90/202/25 75/159/25 89/203/25
f 81/204/26 87/205/26 89/206/26
f 92/197/19 101/152/19 93/207/19
f 108/208/27 109/209/27 105/210/27
f 103/211/28 110/212/28 102/213/28
f 101/214/29 108/215/29 100/216/29
f 98/217/30 107/218/30 106/219/30
f 104/220/31 111/221/31 103/211/31
f 101/214/32 110/222/32 109/223/32
f 100/224/33 107/218/33 99/225/33
f 98/226/34 105/188/34 97/227/34
f 2/1/1 4/228/1 3/2/1
f 4/4/2 6/7/2 5/5/2
f 6/7/3 8/9/3 7/8/3
f 8/9/4 10/229/4 9/10/4
f 10/11/5 12/230/5 11/12/5
f 12/14/6 14/20/6 13/15/6
f 18/19/7 17/231/7 22/232/7
f 24/233/7 23/234/7 22/232/7
f 22/232/7 21/17/7 18/19/7
f 20/18/7 19/235/7 18/19/7
f 17/231/7 24/233/7 22/232/7
f 14/20/8 16/22/8 15/21/8
f 16/22/9 2/236/9 1/23/9
f 15/237/10 1/238/10 3/26/10
f 3/26/10 5/239/10 7/24/10
f 7/24/10 9/240/10 11/25/10
f 11/25/10 13/241/10 15/237/10
f 15/237/10 3/26/10 11/25/10
f 16/27/7 14/34/7 31/28/7
f 8/30/7 28/36/7 29/31/7
f 12/33/7 30/41/7 31/28/7
f 6/35/7 27/42/7 28/36/7
f 2/37/7 26/40/7 25/38/7
f 2/37/7 16/27/7 32/29/7
f 12/33/7 10/32/7 29/31/7
f 4/39/7 25/38/7 27/42/7
f 25/43/2 33/242/2 35/44/2
f 39/46/5 38/74/5 54/47/5
f 29/49/5 37/243/5 38/50/5
f 32/52/9 40/65/9 34/53/9
f 26/55/1 34/244/1 33/56/1
f 27/45/3 35/44/3 36/58/3
f 30/60/6 38/50/6 39/61/6
f 28/59/4 36/58/4 37/63/4
f 31/62/8 39/61/8 40/65/8
f 34/66/5 40/76/5 56/67/5
f 33/69/5 34/66/5 50/68/5
f 36/71/5 35/77/5 51/72/5
f 38/74/5 37/78/5 53/75/5
f 40/76/5 39/46/5 55/48/5
f 35/77/5 33/69/5 49/70/5
f 37/78/5 36/71/5 52/73/5
f 47/79/8 45/245/8 46/80/8
f 55/82/7 63/92/7 64/83/7
f 49/85/7 57/95/7 59/86/7
f 52/88/7 60/96/7 61/89/7
f 54/91/7 62/97/7 63/92/7
f 56/84/7 64/83/7 58/93/7
f 50/94/7 58/93/7 57/95/7
f 51/87/7 59/86/7 60/96/7
f 54/91/7 53/90/7 61/89/7
f 60/98/4 19/110/4 20/99/4
f 57/101/2 17/246/2 18/102/2
f 63/104/8 22/117/8 23/105/8
f 61/107/5 20/247/5 21/108/5
f 59/103/3 18/102/3 19/110/3
f 58/111/1 24/248/1 17/112/1
f 64/106/9 23/105/9 24/114/9
f 62/116/6 21/249/6 22/117/6
f 45/118/11 41/250/11 42/119/11
f 41/121/3 43/251/3 44/122/3
f 43/124/12 47/252/12 48/125/12
f 42/127/10 44/253/10 48/128/10
f 45/130/7 47/254/7 43/131/7
f 71/133/8 69/255/8 70/134/8
f 69/136/11 65/256/11 66/137/11
f 65/139/3 67/257/3 68/140/3
f 67/142/12 71/258/12 72/143/12
f 66/145/10 68/259/10 72/146/10
f 69/148/7 71/260/7 67/149/7
f 94/151/35 93/207/35 101/152/35
f 78/154/5 76/183/5 73/155/5
f 76/157/14 78/261/14 77/158/14
f 74/160/35 73/182/35 97/161/35
f 88/163/5 86/176/5 94/164/5
f 77/166/15 78/262/15 80/167/15
f 91/169/36 74/160/36 104/162/36
f 80/171/5 78/154/5 74/156/5
f 80/167/17 82/263/17 81/173/17
f 95/174/36 94/151/36 100/153/36
f 86/176/5 84/190/5 93/177/5
f 82/178/18 84/185/18 83/179/18
f 96/181/37 98/200/37 97/161/37
f 76/183/5 90/195/5 96/184/5
f 84/185/20 86/264/20 85/186/20
f 104/187/21 97/227/21 105/188/21
f 84/190/5 82/201/5 92/191/5
f 86/192/22 88/198/22 87/193/22
f 90/195/5 88/163/5 95/165/5
f 91/169/16 103/170/16 102/196/16
f 88/198/24 90/265/24 89/199/24
f 95/174/16 99/175/16 98/200/16
f 82/201/5 80/171/5 91/172/5
f 90/202/25 76/157/25 75/159/25
f 89/206/26 75/266/26 81/204/26
f 77/267/26 79/268/26 81/204/26
f 81/204/26 83/269/26 85/270/26
f 85/270/26 87/205/26 81/204/26
f 75/266/26 77/267/26 81/204/26
f 92/197/37 102/196/37 101/152/37
f 111/271/27 112/272/27 110/273/27
f 105/210/27 106/274/27 108/208/27
f 107/275/27 108/208/27 106/274/27
f 109/209/27 110/273/27 105/210/27
f 112/272/27 105/210/27 110/273/27
f 103/211/28 111/221/28 110/212/28
f 101/214/29 109/223/29 108/215/29
f 98/217/30 99/225/30 107/218/30
f 104/220/31 112/276/31 111/221/31
f 101/214/32 102/277/32 110/222/32
f 100/224/33 108/278/33 107/218/33
f 98/226/34 106/279/34 105/188/34
